<?xml version="1.0" encoding="utf-8"?>
<!-- Generator: Adobe Illustrator 14.0.0, SVG Export Plug-In  -->
<!DOCTYPE svg PUBLIC "-//W3C//DTD SVG 1.1//EN" "http://www.w3.org/Graphics/SVG/1.1/DTD/svg11.dtd" [
	<!ENTITY ns_flows "http://ns.adobe.com/Flows/1.0/">
]>
<svg version="1.1"
	 xmlns="http://www.w3.org/2000/svg" xmlns:xlink="http://www.w3.org/1999/xlink" xmlns:a="http://ns.adobe.com/AdobeSVGViewerExtensions/3.0/"
	 x="0px" y="0px" width="600px" height="600px" viewBox="-153.348 -112.83 600 600"
	 enable-background="new -153.348 -112.83 600 600" xml:space="preserve">
<defs>
</defs>
<polyline display="none" fill="none" points="159.095,168.258 178.117,160.313 171.185,136.293 188.185,136.34 188.185,136.345 
	203.99,136.39 196.921,160.371 "/>
<path display="none" d="M308.371,0.684l-32.27,95.91l-15-0.042l-8.9-35.025l-63.77-12.941v-0.243l-0.607,0.12l-0.586-0.119v0.234
	l-63.842,12.581l-9.098,34.975l-15-0.042L67.569,0L50.216,124.952l38.757,86.111l66.819,64.186l30.807,0.088v0.004l32,0.09
	l67.178-63.811l39.242-85.888L308.371,0.684z M215.9,168.423l-18.979-8.053l7.068-23.98l-15.805-0.045v-0.005l-17-0.047l6.932,24.02
	l-19.021,7.945l-40.438-22.113l18.669-59.948l50.414-8.75l50.391,9.039l18.328,60.052L215.9,168.423z"/>
<path fill="#F3CA8A" d="M25.318,56.837c0,0-12.068,26.216-12.068,39.172s-21.306,164.575,95.048,164.575c0,0,24.289,19.086,49.09,0
	c116.764,0,95.032-164.575,95.032-164.575s-6.59-27.839-12.846-39.172s-80.269-14.483-93.628-14.483s-27,0-27,0
	C71.932,35.33,25.318,56.837,25.318,56.837"/>
<path fill="#F3D892" d="M21.88,108.359c0.948,14.821,19.714,37.641,33.987,42.49s35.722-19.152,36.015-30.006
	C92.176,109.99,20.646,89.07,21.88,108.359z"/>
<path fill="#F3D892" d="M243.511,108.359c-0.949,14.821-19.715,37.641-33.988,42.49c-14.272,4.849-35.722-19.152-36.015-30.006
	C173.215,109.99,244.746,89.07,243.511,108.359z"/>
<path fill="#F3D892" d="M132.587,60.67c12.064,0,12.544,5.003,15.064,20.25c5,30.25,5.686,32.25-14.782,32.25L132.587,60.67z"/>
<path fill="#F3D892" d="M132.587,60.67c-12.064,0-12.554,5.002-15.064,20.25c-4.871,29.583-5.686,32.25,14.782,32.25L132.587,60.67z
	"/>
<path fill="#F3D892" d="M168.797,210.624c0-6.282-16.085-11.375-35.928-11.375c-19.842,0-35.928,5.093-35.928,11.375
	s3.71,3.375,35.928,3.375C164.902,213.999,168.797,216.906,168.797,210.624z"/>
<path fill="none" d="M184.671,188.654c0,0-2.941-6.608-12.416-8.253c-9.267-1.608-32.328-5.541-39.42-5.712
	c-7.092,0.172-30.153,4.104-39.42,5.712C83.941,182.045,81,188.654,81,188.654s-7.704,24.739-10.202,32.76
	s-6.881,20.601,12.191,30.94s28.383,9.16,35.949,5.999s2.646-9.706,0.239-18.044c-2.061-7.139,9.755-7.922,13.195-7.999v-0.007
	c0,0,0.17-0.003,0.463-0.001c0.294-0.002,0.464,0.001,0.464,0.001v0.007c3.44,0.077,15.255,0.86,13.194,7.999
	c-2.406,8.338-7.326,14.883,0.24,18.044s16.877,4.341,35.949-5.999s14.688-22.92,12.19-30.94S184.671,188.654,184.671,188.654z"/>
<path d="M252.42,96.01c-3.667,61.83-30.833,69.17-32.333,77.42s-9,18.5-11.5,18.704s-3.685-3.026-3.685-3.026
	s-6.095-23.43-7.191-27.645s-5.981-5.254-5.981-5.254l-58.646-11.928c0-0.06-0.001-0.101-0.001-0.101l-0.248,0.05l-0.248-0.05
	c0,0-0.001,0.042-0.001,0.101l-58.645,11.928c0,0-4.885,1.039-5.981,5.254s-7.191,27.645-7.191,27.645s-1.185,3.23-3.685,3.026
	s-10-10.454-11.5-18.704S16.917,157.839,13.25,96.01c0,0-13.25,64.836-13.25,123.503c0,35.333,32.04,81.749,32.04,81.749
	s37.96,50.917,68.627,62.251c24.488,9.051,30.67,8.646,32.169,8.115c1.499,0.53,7.681,0.936,32.17-8.115
	c30.666-11.334,68.626-62.251,68.626-62.251s32.04-46.416,32.04-81.749C265.671,160.846,252.42,96.01,252.42,96.01z
	 M182.683,252.354c-19.072,10.34-28.383,9.16-35.949,5.999s-2.646-9.706-0.24-18.044c2.061-7.139-9.754-7.922-13.194-7.999v-0.007
	c0,0-0.17-0.003-0.464-0.001c-0.293-0.002-0.463,0.001-0.463,0.001v0.007c-3.44,0.077-15.256,0.86-13.195,7.999
	c2.406,8.338,7.327,14.883-0.239,18.044s-16.877,4.341-35.949-5.999s-14.688-22.92-12.191-30.94S81,188.654,81,188.654
	s2.941-6.608,12.416-8.253c9.267-1.608,32.328-5.541,39.42-5.712c7.092,0.172,30.153,4.104,39.42,5.712
	c9.475,1.645,12.416,8.253,12.416,8.253s7.705,24.739,10.202,32.76S201.755,242.014,182.683,252.354z"/>
<path d="M118.946,42.354c0,0-30.771-10.729-43.961-7.851c-13.189,2.878-49.667,22.333-49.667,22.333s37.608-7.746,53.667-9.203
	c16.058-1.457,37.774,13.621,37.774,13.621L118.946,42.354z"/>
<path d="M145.947,42.354c0,0,30.771-10.729,43.96-7.851c13.189,2.878,49.668,22.333,49.668,22.333s-37.609-7.746-53.668-9.203
	c-16.058-1.457-37.773,13.621-37.773,13.621L145.947,42.354z"/>
</svg>
